<?xml version="1.0" encoding="UTF-8"?>
<svg xmlns="http://www.w3.org/2000/svg" version="1.1" viewBox="0 0 841.89 595.28">
  <defs>
    <style>
      .cls-1 {
        fill: #04152d;
      }

      .cls-2 {
        fill: #0145bc;
      }
    </style>
  </defs>
  <!-- Generator: Adobe Illustrator 28.7.1, SVG Export Plug-In . SVG Version: 1.2.0 Build 142)  -->
  <g>
    <g id="Capa_1">
      <path class="cls-1" d="M465.19,273.98c-3.71,0-7.43-.07-11.14.02-2.59.06-4.25-.93-5.38-3.33-14.47-30.52-28.99-61.03-43.58-91.49-.57-1.18-2.04-2.67-3.09-2.66-1.04,0-2.5,1.5-3.07,2.68-14.7,30.52-29.32,61.09-43.92,91.65-1.02,2.14-2.64,3.13-4.97,3.12-7.62-.01-15.24.02-22.86-.01-3-.01-3.38-.62-2.01-3.43,11.43-23.45,22.9-46.88,34.32-70.33,8.8-18.05,17.56-36.12,26.33-54.18,1.67-3.43,4.39-5.15,8.18-5.16,5.43-.01,10.86-.02,16.28,0,3.83.02,6.38,1.9,8.04,5.33,16.03,33.06,32.11,66.1,48.16,99.15,4.04,8.31,8.06,16.61,12.07,24.94,1.55,3.21,1.19,3.71-2.51,3.71-3.62,0-7.24,0-10.86,0v-.02Z"/>
      <path class="cls-1" d="M446.12,395.59c-1.1.05-1.93.13-2.77.13-15.04,0-30.08.07-45.12-.04-14.82-.1-26.62-9.57-30.19-24.01-3.7-14.97,2.59-30.12,15.36-36.98,4.72-2.54,9.82-3.67,15.11-3.7,14.75-.08,29.51-.03,44.26-.02.46,0,.92.11,1.54.19v10.25c-1.1.05-2.11.15-3.12.15-13.42.01-26.84.07-40.27,0-8.49-.05-15.38,2.96-19.5,10.56-4.28,7.91-3.82,15.98.81,23.65,3.2,5.3,8.19,8.69,14.24,8.91,12.72.45,25.46.14,38.42.14v-16.32h-30.07c1.79-3.53,3.26-6.59,4.91-9.54.32-.58,1.36-1.08,2.07-1.08,11.04-.07,22.08-.06,33.13-.06.36,0,.72.18,1.19.31v37.47Z"/>
      <path class="cls-1" d="M676.19,330.92v10.63c-1.21,0-2.22,0-3.24,0-14.37,0-28.75-.03-43.12.03-1.87,0-3.82.24-5.6.81-3.34,1.08-5.04,3.68-5.09,7.14-.05,3.5,1.52,6.18,4.81,7.32,1.93.67,4.08.96,6.14.97,9.33.07,18.66-.03,27.99-.06,1.24,0,2.48.02,3.71.09,15.97.85,20.65,14.06,17.25,25.89-2.08,7.24-8.14,11.71-16.72,11.84-17.03.26-34.07.08-51.11.07-.17,0-.34-.12-.72-.27v-10.37c1.07,0,2.09,0,3.1,0,15.42,0,30.84.03,46.26-.03,6.28-.03,9.78-3.65,9.27-9.32-.29-3.26-2.23-5.8-5.37-6.67-1.54-.42-3.19-.57-4.79-.58-10.09-.05-20.18.01-30.27-.04-5.58-.03-10.81-1.24-14.94-5.32-5.86-5.8-6.7-12.92-4.45-20.36,2.13-7.02,7.61-10.42,14.67-11.4,1.88-.26,3.79-.34,5.69-.35,14.47-.03,28.94-.02,43.41-.03.94,0,1.87,0,3.12,0Z"/>
      <path class="cls-1" d="M263.99,341.69v53.83h-10.71v-64.22c1.09-.06,2.11-.16,3.12-.16,15.42,0,30.84-.08,46.25.06,16.29.14,25.63,13.24,20.57,28.66-2.02,6.16-6.46,9.93-12.4,12.12-1.06.39-2.15.71-3.6,1.19,6.91,7.45,13.65,14.71,20.92,22.55-5.31,0-9.83.04-14.35-.05-.63-.01-1.38-.59-1.86-1.1-9.49-10.15-18.95-20.33-28.4-30.51-.23-.25-.38-.58-.92-1.43,3.56,0,6.65,0,9.74,0,3.43,0,6.86.08,10.28-.08,7.78-.36,12.56-6.59,10.48-13.55-1.37-4.58-4.74-7.13-9.26-7.22-13.12-.25-26.24-.09-39.86-.09Z"/>
      <path class="cls-1" d="M493.59,331.07h10.82c.06,1.17.15,2.18.15,3.2.01,10.94,0,21.89.02,32.83.03,11.92,6.07,17.96,17.93,17.94,5.61,0,11.23.06,16.84-.08,10.36-.25,16.63-6.6,16.73-16.98.1-11.13.04-22.27.05-33.4,0-1.04,0-2.08,0-3.39h10.73c.07.72.21,1.45.21,2.18.02,11.7.04,23.41,0,35.11-.02,5.81-1.06,11.37-4.43,16.27-5.18,7.56-12.68,10.68-21.52,10.9-7.32.18-14.66.22-21.98.02-15.43-.43-25.53-10.91-25.57-26.32-.03-11.61,0-23.22,0-34.83,0-1.04,0-2.08,0-3.44Z"/>
      <path class="cls-1" d="M123.77,395.72c4.13-6.7,7.89-12.85,11.7-18.97,8.81-14.13,17.66-28.25,26.48-42.37,2.55-4.08,10.53-4.38,12.95-.42,12.07,19.73,24.12,39.47,36.17,59.21.39.64.73,1.32,1.37,2.48-4.44,0-8.56.11-12.66-.1-.7-.04-1.46-1.35-1.98-2.2-8.9-14.75-17.75-29.53-26.63-44.29-.71-1.19-1.54-2.31-2.58-3.87-.81,1.22-1.39,2.04-1.91,2.9-9.32,15.27-18.6,30.57-28.01,45.79-.56.9-2,1.7-3.08,1.76-3.69.22-7.41.08-11.83.08Z"/>
      <path class="cls-2" d="M412.76,247.33c-1.61,3.01-2.84,5.43-4.18,7.81-5.66,10.01-11.3,20.04-17.11,29.96-.7,1.19-2.41,2.49-3.69,2.52-8.65.22-17.31.13-25.97.11-.53,0-1.05-.23-1.82-.4.34-.86.54-1.56.89-2.19,6.5-11.72,12.97-23.46,19.59-35.11.66-1.16,2.21-2.54,3.37-2.57,9.4-.21,18.8-.12,28.91-.12Z"/>
    </g>
  </g>
</svg>